<svg id="43e5afda-dff1-417a-8443-6a50a395920b" data-name="Layer 1" xmlns="http://www.w3.org/2000/svg" viewBox="0 0 390 130">
  <polygon fill="#ffffff" points="130.53 2.65 125.69 2.65 125.69 6.02 130.2 6.02 130.2 8.44 125.69 8.44 125.69 12.79 122.91 12.79 122.91 0.22 130.76 0.22 130.53 2.65" />
  <path fill="#ffffff" d="M188.32,88.78l-1.11-3.14h-4.4l-1.11,3H179l4.73-12.56h2.78l4.79,12.47Zm-3-8.37a5.87,5.87,0,0,1-.26-1.2h-.15a4.26,4.26,0,0,1-.24,1.2l-1.1,3h2.82Z" transform="translate(-47.25 -75.9)" />
  <path fill="#ffffff" d="M199.11,88.87c-3.65,0-6.8-2.19-6.8-6.25A6.37,6.37,0,0,1,199,75.9a9.59,9.59,0,0,1,4.29.88l-.83,2.6a6.5,6.5,0,0,0-3.31-.88c-2,0-3.71,1-3.71,4.09,0,2.7,1.77,3.68,3.85,3.68a6.78,6.78,0,0,0,3.41-1l.59,2.67a10,10,0,0,1-4.2.89" transform="translate(-47.25 -75.9)" />
  <path fill="#ffffff" d="M211,88.87c-3.61,0-5.3-1.49-5.3-4.53V76.12h2.83v7.59c0,1.71.37,2.64,2.49,2.64,1.9,0,2.56-.89,2.56-2.69V76.12h2.56v8.22c0,2.54-1.76,4.53-5.14,4.53" transform="translate(-47.25 -75.9)" />
  <polygon fill="#ffffff" points="179.87 12.79 171.84 12.79 171.84 0.22 174.68 0.22 174.68 10.31 180.08 10.31 179.87 12.79" />
  <path fill="#ffffff" d="M234.29,88.81c-1,0-3.67-.13-3.67-.13h-1.27V76.12h1.1S233,76,234,76c4,0,6.87,2.14,6.87,6.17,0,4.46-2.87,6.65-6.61,6.65m-.52-10.44c-.61,0-1.12,0-1.64.09v7.88c.42,0,1.21.1,1.82.1,2.27,0,3.82-1.48,3.82-4.08,0-3-1.83-4-4-4" transform="translate(-47.25 -75.9)" />
  <path fill="#ffffff" d="M251.12,88.78,250,85.64h-4.4l-1.11,3h-2.7l4.73-12.56h2.78l4.8,12.47Zm-3-8.37a5.87,5.87,0,0,1-.26-1.2h-.15a4.26,4.26,0,0,1-.24,1.2l-1.1,3h2.82Z" transform="translate(-47.25 -75.9)" />
  <path fill="#ffffff" d="M260.92,88.81c-1,0-3.67-.13-3.67-.13H256V76.12h1.1s2.56-.13,3.58-.13c4,0,6.87,2.14,6.87,6.17,0,4.46-2.87,6.65-6.61,6.65m-.52-10.44c-.61,0-1.12,0-1.64.09v7.88c.42,0,1.22.1,1.82.1,2.27,0,3.82-1.48,3.82-4.08,0-3-1.83-4-4-4" transform="translate(-47.25 -75.9)" />
  <polygon fill="#ffffff" points="230.67 12.79 222.62 12.79 222.62 0.22 230.39 0.22 230.19 2.67 225.4 2.67 225.4 5.27 229.84 5.27 229.84 7.66 225.4 7.66 225.4 10.33 230.85 10.33 230.67 12.79" />
  <path fill="#ffffff" d="M173,146c-2.2,0-3.8-.91-3.8-3.31v-6.92h.77v7c0,1.53,1.17,2.52,3,2.52s3.06-1.13,3.06-2.52v-7h.73v6.92c0,2-1.49,3.31-3.79,3.31" transform="translate(-47.25 -75.9)" />
  <path fill="#ffffff" d="M188.79,145.89l-.41-8.16c0-.23,0-.45,0-.6h-.07a2.31,2.31,0,0,1-.17.61l-3.34,8.12H184l-3.29-8.13a2.82,2.82,0,0,1-.17-.6h-.06c0,.15,0,.37,0,.6l-.53,8.13h-.71l.63-10.09h.85l3.54,8.67a2.65,2.65,0,0,1,.15.54h0a2.58,2.58,0,0,1,.16-.56l3.61-8.65H189l.55,10.06Z" transform="translate(-47.25 -75.9)" />
  <path fill="#ffffff" d="M198.53,145.9l-1.42-3.78h-3.88l-1.42,3.74H191l3.87-10.09h.71l3.82,10Zm-3.13-8.38a3.34,3.34,0,0,1-.19-.74h-.05a3.34,3.34,0,0,1-.19.74l-1.49,3.92h3.39Z" transform="translate(-47.25 -75.9)" />
  <rect fill="#ffffff" x="157.45" y="59.87" width="0.77" height="10.08" />
  <path fill="#ffffff" d="M215.51,146l-6.15-8.53a4.14,4.14,0,0,1-.33-.54H209c0,.19,0,.41,0,.62v8.31h-.71V135.77h.78l6,8.34a3.64,3.64,0,0,1,.33.55h.06c0-.19,0-.41,0-.62v-8.27h.71v10.09Z" transform="translate(-47.25 -75.9)" />
  <path fill="#ffffff" d="M220.86,146a5,5,0,0,1-2.72-.68l.29-.74a4.21,4.21,0,0,0,2.43.67c1.33,0,2.41-.78,2.41-1.89,0-2.43-4.88-2.49-4.88-5.18,0-1.65,1.45-2.59,3.19-2.59a8.72,8.72,0,0,1,2.19.28l-.16.83a6.4,6.4,0,0,0-2.13-.38c-1.35,0-2.29.69-2.29,1.76,0,2.23,4.91,2.23,4.91,5.2,0,1.48-1.32,2.72-3.24,2.72" transform="translate(-47.25 -75.9)" />
  <polygon fill="#ffffff" points="185.81 60.58 182.27 60.58 182.27 69.96 181.5 69.96 181.5 60.58 177.97 60.58 177.89 59.87 185.88 59.87 185.81 60.58" />
  <rect fill="#ffffff" x="187.65" y="59.87" width="0.77" height="10.08" />
  <polygon fill="#ffffff" points="198.1 60.58 194.57 60.58 194.57 69.96 193.8 69.96 193.8 60.58 190.27 60.58 190.2 59.87 198.18 59.87 198.1 60.58" />
  <path fill="#ffffff" d="M251,146c-2.2,0-3.8-.91-3.8-3.31v-6.92H248v7c0,1.53,1.17,2.52,3,2.52s3.06-1.13,3.06-2.52v-7h.73v6.92c0,2-1.49,3.31-3.79,3.31" transform="translate(-47.25 -75.9)" />
  <rect fill="#ffffff" x="210.35" y="59.87" width="0.77" height="10.08" />
  <path fill="#ffffff" d="M265.86,146a5,5,0,0,1-5.2-5,5,5,0,0,1,5.17-5.4,9.2,9.2,0,0,1,3.31.54l-.19.74a9.12,9.12,0,0,0-3.1-.53c-2.44,0-4.35,1.52-4.35,4.64a4.25,4.25,0,0,0,4.51,4.29,8.2,8.2,0,0,0,3-.65l.16.73a8,8,0,0,1-3.31.65m-.56,3a2,2,0,0,1-1-.27l.14-.56a1.66,1.66,0,0,0,.84.23c.51,0,.82-.23.82-.78s-.45-.8-1-.82l.1-.53a1.41,1.41,0,0,1,1.54,1.34A1.36,1.36,0,0,1,265.3,149" transform="translate(-47.25 -75.9)" />
  <path fill="#ffffff" d="M278.12,145.9l-1.42-3.78h-3.89l-1.42,3.74h-.83l3.87-10.09h.72l3.81,10Zm-2.25-11c-.84,0-1.85-1.05-2.26-1.05s-.52.28-.83,1l-.47-.24c.45-1.05.84-1.27,1.39-1.27s1.71,1,2.19,1c.32,0,.5-.16.79-1l.49.2c-.34,1.06-.71,1.34-1.3,1.34m-.89,2.62a3.34,3.34,0,0,1-.19-.74h0a4,4,0,0,1-.2.74l-1.49,3.92h3.39Z" transform="translate(-47.25 -75.9)" />
  <path fill="#ffffff" d="M285,146a4.86,4.86,0,0,1-4.92-5,5.15,5.15,0,0,1,5.29-5.43,4.91,4.91,0,0,1,5,5A5.12,5.12,0,0,1,285,146m.3-9.66a4.18,4.18,0,0,0-4.38,4.49c0,2.85,1.77,4.43,4.22,4.43a4.24,4.24,0,0,0,4.36-4.48,4.07,4.07,0,0,0-4.2-4.44" transform="translate(-47.25 -75.9)" />
  <polygon fill="#ffffff" points="254.14 60.58 249.69 60.58 249.69 64.86 253.8 64.86 253.8 65.57 249.69 65.57 249.69 69.96 248.92 69.96 248.92 59.87 254.23 59.87 254.14 60.58" />
  <polygon fill="#ffffff" points="262.03 69.96 256.19 69.96 256.19 59.88 261.68 59.88 261.57 60.58 256.96 60.58 256.96 64.38 261.04 64.38 261.04 65.09 256.96 65.09 256.96 69.25 262.11 69.25 262.03 69.96" />
  <polygon fill="#ffffff" points="269.47 69.96 263.97 69.96 263.97 59.88 264.74 59.88 264.74 69.22 269.56 69.22 269.47 69.96" />
  <path fill="#ffffff" d="M322.53,146c-2.2,0-3.8-.91-3.8-3.31v-6.92h.76v7c0,1.53,1.18,2.52,3,2.52s3.06-1.13,3.06-2.52v-7h.72v6.92c0,2-1.49,3.31-3.78,3.31" transform="translate(-47.25 -75.9)" />
  <path fill="#ffffff" d="M338.35,145.89l-.42-8.16c0-.23,0-.45,0-.6h-.06a2.25,2.25,0,0,1-.18.61l-3.34,8.12h-.81l-3.3-8.13a2.39,2.39,0,0,1-.16-.6H330c0,.15,0,.37,0,.6l-.53,8.13h-.71l.64-10.09h.84l3.55,8.67a2.65,2.65,0,0,1,.15.54h0a3.3,3.3,0,0,1,.16-.56l3.61-8.65h.85l.54,10.06Z" transform="translate(-47.25 -75.9)" />
  <path fill="#ffffff" d="M348.09,145.9l-1.42-3.78h-3.89l-1.42,3.74h-.83l3.88-10.09h.71l3.81,10ZM345,137.52a5,5,0,0,1-.19-.74h0a5,5,0,0,1-.19.74l-1.5,3.92h3.39Z" transform="translate(-47.25 -75.9)" />
  <path fill="#ffffff" d="M178.55,121.57c-5,0-9.55-3.18-9.55-9,0-6.7,4.79-9.66,9.47-9.66a17,17,0,0,1,6.06,1l-.39,5.1-1.41.19-.31-3.91a10.42,10.42,0,0,0-3.84-.75c-3.68,0-6.59,2.46-6.59,8,0,4.76,3.25,7.27,6.85,7.27a9.37,9.37,0,0,0,3.63-.76l.61-4,1.45.13v5.21a15.51,15.51,0,0,1-6,1.17" transform="translate(-47.25 -75.9)" />
  <polygon fill="#ffffff" points="141.07 45.4 141.21 44.05 143.69 43.74 143.69 29.02 141.1 28.68 141.23 27.35 148.96 27.35 148.85 28.68 146.37 29.02 146.37 43.74 148.88 44.05 148.99 45.4 141.07 45.4" />
  <path fill="#ffffff" d="M209.66,112.78h-5.35v6.88h6.56l.64-3.41,1.38.16-.08,5c-.56,0-2.22-.14-3.07-.14H199.1l.1-1.35,2.44-.31V104.92l-2.6-.34.14-1.33h12.94l-.32,4.34-1.37.24-.3-3h-5.82v6.33h5.35Zm-1.35-10.51L206,100.39l-2.49,1.88-1.59-.15L205.19,99h1.69l3,3.13Z" transform="translate(-47.25 -75.9)" />
  <path fill="#ffffff" d="M235.73,104.58l-1.88.34v16.36l-1.72.29c-3-4.24-8.55-11.6-11.59-15.14l.13,13.21L224,120l.11,1.35h-7.76l.13-1.35,2.49-.31V104.92l-2.59-.34.13-1.33h4.87c3.31,4,8.15,10.17,10.88,14l-.13-12.36-3.42-.34.14-1.33h7Z" transform="translate(-47.25 -75.9)" />
  <path fill="#ffffff" d="M248.36,121.57c-5,0-9.55-3.18-9.55-9,0-6.7,4.79-9.66,9.47-9.66a17,17,0,0,1,6.06,1l-.39,5.1-1.4.19-.32-3.91a10.38,10.38,0,0,0-3.84-.75c-3.68,0-6.59,2.46-6.59,8,0,4.76,3.25,7.27,6.85,7.27a9.37,9.37,0,0,0,3.63-.76l.61-4,1.45.13v5.21a15.47,15.47,0,0,1-6,1.17" transform="translate(-47.25 -75.9)" />
  <polygon fill="#ffffff" points="210.88 45.4 211.01 44.05 213.5 43.74 213.5 29.02 210.91 28.68 211.04 27.35 218.77 27.35 218.66 28.68 216.18 29.02 216.18 43.74 218.69 44.05 218.8 45.4 210.88 45.4" />
  <path fill="#ffffff" d="M278.44,121.3l.1-1.35,2.59-.31c-.52-1.3-1.1-2.75-1.74-4.61h-6.25c-.5,1.48-1.27,3.42-1.77,4.61L274,120l.08,1.35h-6.86l.13-1.35,1.88-.31a170.38,170.38,0,0,0,6.25-16.39h2.43c1.14,3.74,4.59,12.76,6.28,16.39l1.93.31.08,1.35Zm-2.09-15.43h-.14c-.53,1.7-1.85,5.74-2.54,7.62h5.19c-.93-2.62-2-5.71-2.51-7.62" transform="translate(-47.25 -75.9)" />
  <path fill="#ffffff" d="M293,121.57a9.77,9.77,0,0,1-5.22-1.35l.13-4.72,1.41-.23.37,3.57a5.23,5.23,0,0,0,3.14,1c2,0,3.58-1.17,3.58-2.89,0-4.1-8.23-4.26-8.23-9.16,0-3.12,2.86-4.86,6.06-4.86a15,15,0,0,1,4.29.55l-.22,4.66-1.37.24-.32-3.44a7.89,7.89,0,0,0-2.44-.46c-1.85,0-3.35,1.06-3.35,2.78,0,3.58,8.39,4,8.39,9.19,0,2.94-2.65,5.11-6.22,5.11" transform="translate(-47.25 -75.9)" />
  <path fill="#ffffff" d="M324.85,121.3,325,120l2.75-.31c-.32-3.63-.64-10.86-.66-13.24-1.3,2.73-4.47,10.67-5.85,14.9h-2.3c-1.43-4.1-4.24-11.35-5.9-14.9,0,2.55-.4,10.41-.61,13.24L315,120l.08,1.35H308l.11-1.35,2.43-.31c.43-4.32,1-12.65,1-14.72l-2.75-.32.13-1.35h5.48c1.59,3.36,4.58,10.48,6.17,15.06,1.35-4.1,4.29-11.11,6.11-15.06h5.43l.11,1.35-2.73.32c0,3.55.42,10.7.87,14.72l2.57.31.1,1.35Z" transform="translate(-47.25 -75.9)" />
  <path fill="#ffffff" d="M345.76,112.78h-5.35v6.88H347l.63-3.41,1.38.16-.08,5c-.56,0-2.22-.14-3.07-.14H335.2l.11-1.35,2.43-.31V104.92l-2.59-.34.13-1.33h12.94l-.31,4.34-1.38.24-.29-3h-5.83v6.32h5.35Zm-3.89-10.53h-1.59l2.09-3h2.73Z" transform="translate(-47.25 -75.9)" />
  <path fill="#ffffff" d="M361.59,121.49c-1.43,0-5.08-.19-5.08-.19h-4.08l.14-1.35,2.49-.31V104.92l-2.6-.34.13-1.33h3.81s3.34-.18,4.82-.18c5.61,0,9.56,3.23,9.56,8.86,0,6.33-3.89,9.56-9.19,9.56m-.53-16.83c-1,0-2.64.07-3.36.13v14.92c.72.09,2.46.16,3.65.16,4,0,6.49-3,6.49-7.64,0-5.22-3-7.57-6.78-7.57" transform="translate(-47.25 -75.9)" />
  <polygon fill="#ffffff" points="326.34 45.4 326.47 44.05 328.95 43.74 328.95 29.02 326.36 28.68 326.49 27.35 334.22 27.35 334.12 28.68 331.63 29.02 331.63 43.74 334.14 44.05 334.25 45.4 326.34 45.4" />
  <path fill="#ffffff" d="M393.86,121.57c-5,0-9.55-3.18-9.55-9,0-6.7,4.79-9.66,9.48-9.66a17,17,0,0,1,6,1l-.39,5.1-1.4.19-.32-3.91a10.38,10.38,0,0,0-3.84-.75c-3.68,0-6.59,2.46-6.59,8,0,4.76,3.26,7.27,6.85,7.27a9.37,9.37,0,0,0,3.63-.76l.61-4,1.45.13v5.21a15.44,15.44,0,0,1-6,1.17" transform="translate(-47.25 -75.9)" />
  <path fill="#ffffff" d="M413.21,121.3l.11-1.35,2.6-.31c-.53-1.3-1.11-2.75-1.75-4.61h-6.25c-.5,1.48-1.27,3.42-1.77,4.61l2.64.31.09,1.35H402l.13-1.35,1.88-.31a170.38,170.38,0,0,0,6.25-16.39h2.44c1.13,3.74,4.57,12.76,6.27,16.39l1.93.31.08,1.35Zm-2.08-15.43H411c-.52,1.7-1.85,5.74-2.54,7.62h5.19c-.92-2.62-2-5.71-2.51-7.62" transform="translate(-47.25 -75.9)" />
  <path fill="#ffffff" d="M427.81,121.57a9.77,9.77,0,0,1-5.22-1.35l.13-4.72,1.41-.23.37,3.57a5.2,5.2,0,0,0,3.15,1c2,0,3.57-1.17,3.57-2.89,0-4.1-8.24-4.26-8.24-9.16,0-3.12,2.86-4.86,6.07-4.86a15,15,0,0,1,4.29.55l-.21,4.66-1.38.24-.32-3.44a7.89,7.89,0,0,0-2.44-.46c-1.85,0-3.35,1.06-3.35,2.78,0,3.58,8.39,4,8.39,9.19,0,2.94-2.65,5.11-6.22,5.11" transform="translate(-47.25 -75.9)" />
  <path fill="#ffffff" d="M160.5,160.88a19.71,19.71,0,0,0-6.33-8.47,19,19,0,0,0-9.72-3.78c-.58,0-1.18-.08-1.77-.08h-2.61v2.61h.61a2,2,0,0,1,2,1.92v8a7.82,7.82,0,0,1-4.33,1.35,8.5,8.5,0,0,1-3.55-.8,3.65,3.65,0,0,1-2-3.24v-4a10.17,10.17,0,0,0-5.14-8.46,10.21,10.21,0,0,0,5.14-8.47v-4a3.65,3.65,0,0,1,2-3.24,8.66,8.66,0,0,1,3.55-.8,8.46,8.46,0,0,1,3.2.65,6.83,6.83,0,0,0-4,6.22,5.64,5.64,0,0,0,.08,1,6.87,6.87,0,0,0,13.67-1,6.75,6.75,0,0,0-1-3.54,4.53,4.53,0,0,0-.3-.46,12,12,0,0,0-5.54-4,24.82,24.82,0,0,0-9-1.52,23.94,23.94,0,0,0-8,1.26,19.68,19.68,0,0,0-8.46,6.33q-.48.63-.9,1.29a15.89,15.89,0,0,1,15.54-12.55h17.65v-2.61h-12.8a10.19,10.19,0,0,0,10.19-10.18h0V81.83a2,2,0,0,1,2-2h.6V76.14h-8.84a6.26,6.26,0,0,0-4.72,2.15c-.17.2-66.23,86.74-66.23,86.74h4.33L97.5,136.82v23.59a2,2,0,0,1-2,2h-.6V165h17.68v-2.61H99.77A10.19,10.19,0,0,0,110,152.23V132.55a2,2,0,0,1,2-2h.6v-3.68h-7.44l2.82-3.67,28.3-36.92v32.3a2,2,0,0,1-2,2h-.59a18.47,18.47,0,0,0-18.47,18.47V146c0,.59,0,1.18.08,1.77a19,19,0,0,0,3.78,9.72,19.78,19.78,0,0,0,8.46,6.34,24.25,24.25,0,0,0,8,1.25,17.17,17.17,0,0,0,8.85-1.83,10.21,10.21,0,0,0,6.82,3h4a3.66,3.66,0,0,1,3.24,2,8.59,8.59,0,0,1,.8,3.56,8.69,8.69,0,0,1-.64,3.2,6.84,6.84,0,0,0-6.23-4,5.64,5.64,0,0,0-1,.08,6.88,6.88,0,0,0-5.18,9.72c-9.51,5.63-31.14,16.45-42.32,22-10.9-5.43-31.7-15.9-41.56-21.62-2.57-1.49-6-3-8.59-7A16,16,0,0,1,50.93,165V79.82H95.49a2,2,0,0,1,2,2v26.75A23.93,23.93,0,0,1,82.39,120s-.75.17-1,.21a10.38,10.38,0,0,1-5.65-.42,3.66,3.66,0,0,1-2-3.24v-4a10.21,10.21,0,0,0-5.13-8.46,10.18,10.18,0,0,0,5.13-8.45v-4a3.64,3.64,0,0,1,2-3.24,8.22,8.22,0,0,1,6.76-.16,6.83,6.83,0,0,0-4,6.23,5,5,0,0,0,.08,1,6.87,6.87,0,0,0,13.66-1,6.79,6.79,0,0,0-1-3.55,3.52,3.52,0,0,0-.3-.45,12,12,0,0,0-5.53-4,25.12,25.12,0,0,0-9-1.51,23.61,23.61,0,0,0-8,1.25A19.73,19.73,0,0,0,60,92.61a19.11,19.11,0,0,0-3.78,9.73c0,.58-.08,1.17-.08,1.77s0,1.19.08,1.78A19,19,0,0,0,60,115.61a19.65,19.65,0,0,0,8.47,6.33,23.61,23.61,0,0,0,8,1.25h.32a27.16,27.16,0,0,0,3.14-.18,24.14,24.14,0,0,0,3.43-.64,26.51,26.51,0,0,0,14.19-9.19v5.39a2,2,0,0,1-2,2h-.6v2.61h5.51L110,110.64V86.27l9.32,12.15,2.26-3L108.92,78.92a7.47,7.47,0,0,0-.48-.63,6.28,6.28,0,0,0-4.71-2.15H47.25V165h0a23.05,23.05,0,0,0,1.14,6.69,17.21,17.21,0,0,0,3.74,6.64A27.9,27.9,0,0,0,59.81,184c11.21,6.2,39.9,21,43.92,22.73,4.14-1.75,34.4-17.15,44.85-23.13a6.74,6.74,0,0,0,3.69,1.08,6.9,6.9,0,0,0,3.55-1l.45-.3a12.09,12.09,0,0,0,4-5.54,24.64,24.64,0,0,0,1.51-9,23.68,23.68,0,0,0-1.25-8" transform="translate(-47.25 -75.9)" />
  <path fill="#ffffff" d="M80.58,149.21l2.26-3L71.21,131l-1-1.36a6.14,6.14,0,0,0-.49-.65,6.24,6.24,0,0,0-4.7-2.14H56.14v3.68h.6a2,2,0,0,1,2,2v27.86a2,2,0,0,1-2,2h-.6V165H68.53l2.87-3.77a1.89,1.89,0,0,1-.19-.85V137Z" transform="translate(-47.25 -75.9)" />
  <polygon fill="#ffffff" points="40.84 107.97 40.84 109.81 46.68 109.81 46.86 107.97 45.18 107.97 45.18 99.76 43.58 99.76 40.87 100.38 41.16 102.05 43.05 101.68 43.05 107.97 40.84 107.97" />
  <path fill="#ffffff" d="M95.91,184l.4,1.89a6,6,0,0,0,6.19-6.3c0-2.68-1.29-4.06-3.25-4.06a3.14,3.14,0,0,0-3.37,3.28,2.62,2.62,0,0,0,2.75,2.82,2.24,2.24,0,0,0,1.6-.61h.08c-.52,2.25-2.5,3-4.4,3m3.33-4A1.18,1.18,0,0,1,98,178.64c0-1,.53-1.44,1.29-1.44s1.23.51,1.23,1.44A1.18,1.18,0,0,1,99.24,180" transform="translate(-47.25 -75.9)" />
  <path fill="#ffffff" d="M104.72,183.92l.27,1.94c3.75,0,5.62-1.43,5.62-3.39s-1.72-2.8-3.71-2.8h-.13l.25-2.11h3.24l.19-1.9h-5.09l-.61,5.73c.3,0,1,0,1.31,0,1.55,0,2.34.34,2.34,1.18s-1.13,1.35-3.68,1.39" transform="translate(-47.25 -75.9)" />
  <path fill="#ffffff" d="M119.38,180.64c0-3.56-1.15-5.16-3.33-5.16s-3.44,1.71-3.44,5.16c0,3.61,1.13,5.21,3.32,5.21s3.45-1.75,3.45-5.21m-4.61,0c0-2.56.38-3.44,1.21-3.44s1.23.6,1.23,3.44c0,2.46-.32,3.51-1.23,3.51s-1.21-.92-1.21-3.51" transform="translate(-47.25 -75.9)" />
</svg>
