<?xml version="1.0" encoding="iso-8859-1"?>
<svg version="1.1" id="Layer_1" xmlns="http://www.w3.org/2000/svg" xmlns:xlink="http://www.w3.org/1999/xlink" x="0px" y="0px"
	 viewBox="0 0 512 512" style="enable-background:new 0 0 512 512;" xml:space="preserve">
<path style="fill:#5A4146;" d="M423.683,315.569c0.052,7.011-4.099,13.325-10.46,16.275c-40.022,18.564-95.66,30.088-157.224,30.088
	s-117.202-11.523-157.225-30.088c-6.36-2.951-10.511-9.265-10.46-16.275C89.57,147.062,120.395,0,256,0
	S422.43,147.062,423.683,315.569z"/>
<path style="fill:#E6AF78;" d="M317.793,342.844v-42.706H194.207v42.706c0,11.399-7.294,21.519-18.109,25.123l-84.126,28.042
	c-18.023,6.008-30.179,22.875-30.179,41.873v56.463c0,9.751,7.904,17.655,17.655,17.655h353.103c9.751,0,17.655-7.904,17.655-17.655
	v-56.463c0-18.998-12.157-35.865-30.18-41.873l-84.126-28.042C325.087,364.362,317.793,354.242,317.793,342.844z"/>
<path style="fill:#D29B6E;" d="M194.207,342.844c0,10.685-6.453,20.173-16.161,24.298c98.92,16.858,139.72-53.762,139.72-53.762
	l0.028-0.019v-13.223H194.207V342.844z"/>
<path style="fill:#28AFF0;" d="M420.026,396.009l-68.74-22.913c-32.717,44.385-70.904,69.187-95.286,77.111
	c-24.382-7.924-62.569-32.726-95.286-77.111l-68.74,22.913c-18.024,6.008-30.18,22.875-30.18,41.873v56.463
	c0,9.75,7.905,17.655,17.655,17.655h353.103c9.75,0,17.655-7.905,17.655-17.655v-56.463
	C450.207,418.883,438.05,402.017,420.026,396.009z"/>
<path style="fill:#F0C087;" d="M370.132,185.379h-0.035c-0.256,0-0.503,0.031-0.757,0.042c0.927-13.79,1.419-27.606,1.419-41.428
	v-38.062H141.241v38.061c0,13.822,0.492,27.638,1.419,41.428c-0.254-0.011-0.501-0.042-0.757-0.042h-0.034
	c-11.887,0-20.611,11.172-17.728,22.705l9.97,39.876c1.181,4.724,5.426,8.039,10.296,8.039c1.252,0,2.455-0.226,3.577-0.628
	l0.164,2.143c1.216,15.807,9.448,30.238,22.435,39.329l53.308,37.315c9.407,6.585,20.612,10.116,32.095,10.116h0.026
	c11.482,0,22.688-3.532,32.095-10.116l53.308-37.315c12.988-9.091,21.22-23.522,22.435-39.329l0.164-2.143
	c1.122,0.403,2.325,0.628,3.577,0.628l0,0c4.87,0,9.115-3.315,10.296-8.039l9.97-39.876
	C390.742,196.552,382.019,185.379,370.132,185.379z"/>
<path style="fill:#E6AF78;" d="M370.097,105.931H141.241v38.063c0,4.905,0.166,9.806,0.282,14.709v0.003
	c0.14,5.895,0.364,11.785,0.673,17.673c0,0.001,0,0.003,0,0.003v0.001c0.158,3.012,0.313,6.026,0.484,9.037
	c-0.26-0.011-0.515-0.043-0.778-0.043h-0.034c-11.887,0-20.611,11.172-17.728,22.705l9.97,39.876
	c1.181,4.724,5.426,8.039,10.296,8.039c1.252,0,2.455-0.226,3.577-0.628l0.164,2.142c1.216,15.807,9.449,30.238,22.436,39.329
	l53.308,37.315c9.407,6.584,20.612,10.116,32.095,10.116c-14.166,0-29.735-24.384-39.503-42.874
	c-6.435-12.181-9.869-25.684-10.126-39.458l-1.491-79.928c-0.118-6.356,4.487-11.763,10.75-12.85
	c47.34-8.216,84.919-21.642,106.401-31.126c17.03,28.15,39.46,36.57,42.368,37.564l2.777,0.949h2.631
	c0.31-5.882,0.536-11.766,0.679-17.655L370.097,105.931z"/>
<g>
	<path style="fill:#23A0EB;" d="M122.071,457.519l-48.97-48.97c-7.06,7.908-11.308,18.219-11.308,29.332v56.463
		c0,9.751,7.904,17.655,17.655,17.655h52.966v-29.512C132.414,473.123,128.694,464.142,122.071,457.519z"/>
	<path style="fill:#23A0EB;" d="M389.929,457.519l48.97-48.97c7.06,7.908,11.308,18.219,11.308,29.332v56.463
		c0,9.751-7.904,17.655-17.655,17.655h-52.966v-29.512C379.586,473.123,383.306,464.142,389.929,457.519z"/>
</g>
<path style="fill:#5A4146;" d="M132.414,97.103v61.793c104.585,0,184.198-36.41,197.532-44.455
	c14.33,35.627,40.151,44.455,40.151,44.455h9.49V97.103H132.414z"/>
<path style="fill:#23A0EB;" d="M146.505,383.569c35.457,48.108,76.991,74.643,104.039,83.431L256,468.77l5.457-1.771
	c27.048-8.789,68.582-35.324,104.039-83.431l3.166-4.682l-17.376-5.792c-32.716,44.386-70.903,69.188-95.285,77.112
	c-24.382-7.924-62.569-32.726-95.286-77.111l-17.376,5.792L146.505,383.569z"/>
<g>
</g>
<g>
</g>
<g>
</g>
<g>
</g>
<g>
</g>
<g>
</g>
<g>
</g>
<g>
</g>
<g>
</g>
<g>
</g>
<g>
</g>
<g>
</g>
<g>
</g>
<g>
</g>
<g>
</g>
</svg>
